<svg width="149" height="126" viewBox="0 0 149 126" fill="none" xmlns="http://www.w3.org/2000/svg">
<g filter="url(#filter0_i_1_24)">
<path d="M2 99.0685C4.83799 101.762 6.45137 103.445 9.57716 101.323C15.2658 97.4624 20.4887 91.2718 25.4469 84.9485C30.6641 78.2946 35.4988 70.772 40.2111 62.9825M40.2111 62.9825C41.8238 60.3167 43.4222 57.6196 45.0167 54.9154M40.2111 62.9825C34.3429 60.3529 28.5084 57.1666 23.1401 52.2792C22.4888 51.6862 15.818 45.6001 16.3951 42.6958C16.6357 41.4851 17.8071 42.3639 18.4975 42.5884C19.9712 43.0678 21.434 43.6586 22.8919 44.2796C30.2482 47.4129 36.4431 50.4467 43.8715 54.3193C44.2523 54.5179 44.6341 54.7165 45.0167 54.9154M40.2111 62.9825C42.8685 64.1733 45.5327 65.2499 48.1637 66.3186C51.7945 67.7935 55.4353 69.1596 59.0846 70.4331M45.0167 54.9154C45.0389 54.8778 45.0611 54.8401 45.0832 54.8025C49.3994 47.4815 53.6943 40.0556 57.8735 32.4356M45.0167 54.9154C48.7297 56.8451 52.5203 58.7931 56.3319 60.8555M57.8735 32.4356C59.7536 29.0077 61.6103 25.5405 63.4349 22.0259C65.6142 17.8279 67.9157 13.4595 69.7127 8.65748C70.2211 7.2988 70.5456 5.82623 71.1434 4.57717L71.1701 4.52142C71.4019 4.03733 72.3866 1.98079 72.3406 2.00014C70.84 2.6308 68.9958 4.79604 67.7563 6.40257C63.0502 12.5023 59.7845 22.1093 57.8735 32.4356ZM57.8735 32.4356C56.7147 38.6975 56.054 45.224 55.8723 51.3933C55.778 54.5943 55.9109 57.8163 56.3319 60.8555M56.3319 60.8555C56.8238 64.4055 57.7089 67.7063 59.0846 70.4331M56.3319 60.8555C64.6966 65.3815 73.162 70.4591 81.1285 77.1065M59.0846 70.4331C59.489 71.2347 59.9357 71.9866 60.4274 72.6807C62.4258 75.5023 64.9921 76.8862 67.4059 77.9153C71.8714 79.8192 76.4762 80.7639 81.0565 80.8682C82.3858 80.8984 83.8087 80.894 85.2513 80.7363M59.0846 70.4331C66.4028 72.987 73.755 75.1684 81.1285 77.1065M85.2513 80.7363C86.1224 80.6411 87.0008 80.49 87.87 80.2568M85.2513 80.7363C86.3046 81.7155 87.3469 82.7267 88.3766 83.7725M85.2513 80.7363C83.8944 79.4749 82.519 78.2668 81.1285 77.1065M87.87 80.2568C88.6707 80.0421 89.4637 79.7578 90.2362 79.3834M87.87 80.2568C87.8162 79.7655 87.7691 79.2724 87.7286 78.7785M87.87 80.2568C87.9999 81.4433 88.1686 82.6197 88.3766 83.7725M90.2362 79.3834C92.6777 78.2003 94.9151 76.1183 96.5466 72.4928C98.5956 67.9396 99.2827 60.1501 97.0722 55.3662C95.4332 51.8193 92.8325 52.7173 91.1302 55.581C87.9566 60.9196 87.1943 70.0399 87.6409 77.5395C87.6655 77.9527 87.6947 78.3659 87.7286 78.7785M90.2362 79.3834C89.4001 79.1843 88.5642 78.9827 87.7286 78.7785M90.2362 79.3834C93.2619 80.1041 96.2903 80.7929 99.3205 81.4587C111.915 84.2261 124.512 86.7147 137.177 88.0624C140.189 88.3829 143.839 89.237 146.944 88.814C147.08 88.7956 146.938 88.2657 146.842 88.0892C145.215 85.0976 142.621 83.6996 140.52 82.4251C131.527 76.9697 122.42 72.1602 113.424 66.6945M87.7286 78.7785C85.5269 78.2405 83.3267 77.6843 81.1285 77.1065M88.3766 83.7725C89.0052 87.2577 89.9924 90.5284 91.3492 93.2165C92.4613 95.4198 94.5781 98.323 96.2984 96.572C96.7863 96.0754 97.1753 95.3484 97.4867 94.4917M88.3766 83.7725C91.547 86.9927 94.5982 90.5411 97.4867 94.4917M97.4867 94.4917C98.1856 92.5687 98.4933 89.9922 98.6489 87.9013C98.7731 86.2331 98.6974 87.4027 98.7511 88.8677C98.8514 91.6033 99.0179 94.3308 99.2806 97.0287M97.4867 94.4917C98.0919 95.3194 98.69 96.1649 99.2806 97.0287M99.2806 97.0287C99.4068 98.3247 99.5553 99.6139 99.7293 100.894C100.691 107.968 102.241 115.865 105.277 120.866C105.694 121.552 109.583 126.437 109.511 122.262C109.362 113.649 104.253 104.739 101.087 99.7664C100.493 98.8338 99.891 97.9214 99.2806 97.0287ZM75.8445 38.186C78.01 40.5936 80.008 43.4539 82.1515 45.9171" stroke="black" stroke-width="3" stroke-linecap="round"/>
</g>
<defs>
<filter id="filter0_i_1_24" x="0.5" y="0.499591" width="148" height="128.933" filterUnits="userSpaceOnUse" color-interpolation-filters="sRGB">
<feFlood flood-opacity="0" result="BackgroundImageFix"/>
<feBlend mode="normal" in="SourceGraphic" in2="BackgroundImageFix" result="shape"/>
<feColorMatrix in="SourceAlpha" type="matrix" values="0 0 0 0 0 0 0 0 0 0 0 0 0 0 0 0 0 0 127 0" result="hardAlpha"/>
<feOffset dy="4"/>
<feGaussianBlur stdDeviation="2"/>
<feComposite in2="hardAlpha" operator="arithmetic" k2="-1" k3="1"/>
<feColorMatrix type="matrix" values="0 0 0 0 0 0 0 0 0 0 0 0 0 0 0 0 0 0 0.25 0"/>
<feBlend mode="normal" in2="shape" result="effect1_innerShadow_1_24"/>
</filter>
</defs>
</svg>
